<svg xmlns="http://www.w3.org/2000/svg" xmlns:xlink="http://www.w3.org/1999/xlink" width="200" zoomAndPan="magnify" viewBox="0 0 150 30.000001" height="40" preserveAspectRatio="xMidYMid meet" version="1.0"><defs><g/></defs><g fill="#ad0016" fill-opacity="1"><g transform="translate(5.351384, 20.959296)"><g><path d="M 20.71875 3.921875 C 19.15625 4.710938 17.578125 4.84375 15.984375 4.3125 C 14.273438 3.769531 12.804688 2.613281 11.578125 0.84375 C 10.921875 -0.101562 10.359375 -1.203125 9.890625 -2.453125 L 9.203125 -4.265625 L 4.140625 -4.265625 L 3 -1.5625 C 2.925781 -1.375 2.890625 -1.222656 2.890625 -1.109375 C 2.890625 -0.992188 2.914062 -0.867188 2.96875 -0.734375 C 3.019531 -0.597656 3.125 -0.476562 3.28125 -0.375 C 3.445312 -0.269531 3.628906 -0.21875 3.828125 -0.21875 L 4 -0.21875 L 4 0 L -0.578125 0 L -0.578125 -0.21875 L -0.390625 -0.21875 C -0.0664062 -0.21875 0.253906 -0.3125 0.578125 -0.5 C 0.898438 -0.695312 1.171875 -0.988281 1.390625 -1.375 L 6.171875 -12.296875 C 5.617188 -13.554688 5.023438 -14.421875 4.390625 -14.890625 C 3.859375 -15.285156 3.351562 -15.484375 2.875 -15.484375 C 2.394531 -15.484375 1.945312 -15.414062 1.53125 -15.28125 L 1.5 -15.484375 C 2.53125 -16.015625 3.515625 -16.28125 4.453125 -16.28125 C 5.628906 -16.28125 6.679688 -15.820312 7.609375 -14.90625 C 8.523438 -14.007812 9.332031 -12.707031 10.03125 -11 L 13.140625 -3.328125 C 14.316406 -0.421875 15.519531 1.570312 16.75 2.65625 C 17.25 3.101562 17.765625 3.410156 18.296875 3.578125 C 18.828125 3.753906 19.273438 3.84375 19.640625 3.84375 C 20.003906 3.84375 20.359375 3.800781 20.703125 3.71875 Z M 4.5 -5.1875 L 8.875 -5.1875 L 7.375 -9.15625 C 7.300781 -9.351562 7.195312 -9.628906 7.0625 -9.984375 C 6.9375 -10.335938 6.851562 -10.585938 6.8125 -10.734375 Z M 4.5 -5.1875 "/></g></g></g><g fill="#ad0016" fill-opacity="1"><g transform="translate(20.479449, 20.959296)"><g><path d="M 1.1875 -0.21875 C 1.550781 -0.21875 1.863281 -0.347656 2.125 -0.609375 C 2.394531 -0.878906 2.535156 -1.195312 2.546875 -1.5625 L 2.546875 -13.453125 C 2.535156 -13.828125 2.394531 -14.144531 2.125 -14.40625 C 1.863281 -14.664062 1.550781 -14.796875 1.1875 -14.796875 L 0.90625 -14.796875 L 0.90625 -15.015625 L 7.421875 -15.015625 L 7.40625 -14.796875 L 7.140625 -14.796875 C 6.773438 -14.796875 6.453125 -14.664062 6.171875 -14.40625 C 5.898438 -14.144531 5.765625 -13.828125 5.765625 -13.453125 L 5.765625 -0.921875 L 8.578125 -0.921875 C 9.617188 -0.921875 10.492188 -1.21875 11.203125 -1.8125 C 11.910156 -2.414062 12.4375 -3.269531 12.78125 -4.375 L 13 -4.375 L 12.015625 0 L 0.90625 0 L 0.90625 -0.21875 Z M 1.1875 -0.21875 "/></g></g></g><g fill="#ad0016" fill-opacity="1"><g transform="translate(33.697731, 20.959296)"><g><path d="M 1.1875 -0.21875 C 1.550781 -0.21875 1.863281 -0.347656 2.125 -0.609375 C 2.394531 -0.878906 2.535156 -1.195312 2.546875 -1.5625 L 2.546875 -13.453125 C 2.535156 -13.828125 2.394531 -14.144531 2.125 -14.40625 C 1.863281 -14.664062 1.550781 -14.796875 1.1875 -14.796875 L 0.90625 -14.796875 L 0.90625 -15.015625 L 7.421875 -15.015625 L 7.40625 -14.796875 L 7.140625 -14.796875 C 6.773438 -14.796875 6.453125 -14.664062 6.171875 -14.40625 C 5.898438 -14.144531 5.765625 -13.828125 5.765625 -13.453125 L 5.765625 -0.921875 L 8.578125 -0.921875 C 9.617188 -0.921875 10.492188 -1.21875 11.203125 -1.8125 C 11.910156 -2.414062 12.4375 -3.269531 12.78125 -4.375 L 13 -4.375 L 12.015625 0 L 0.90625 0 L 0.90625 -0.21875 Z M 1.1875 -0.21875 "/></g></g></g><g fill="#ad0016" fill-opacity="1"><g transform="translate(46.916013, 20.959296)"><g><path d="M 16.953125 -14.796875 L 16.578125 -14.796875 C 16.273438 -14.796875 16.015625 -14.695312 15.796875 -14.5 C 15.578125 -14.3125 15.46875 -14.078125 15.46875 -13.796875 L 15.46875 -5.421875 C 15.46875 -3.660156 14.914062 -2.265625 13.8125 -1.234375 C 12.707031 -0.210938 11.203125 0.296875 9.296875 0.296875 C 7.035156 0.296875 5.300781 -0.203125 4.09375 -1.203125 C 2.894531 -2.210938 2.296875 -3.613281 2.296875 -5.40625 L 2.296875 -13.734375 C 2.296875 -14.046875 2.179688 -14.300781 1.953125 -14.5 C 1.734375 -14.695312 1.46875 -14.796875 1.15625 -14.796875 L 0.8125 -14.796875 L 0.8125 -15.015625 L 7 -15.015625 L 7 -14.796875 L 6.65625 -14.796875 C 6.332031 -14.796875 6.0625 -14.695312 5.84375 -14.5 C 5.632812 -14.3125 5.523438 -14.066406 5.515625 -13.765625 L 5.515625 -5.578125 C 5.515625 -4.054688 5.882812 -2.851562 6.625 -1.96875 C 7.375 -1.082031 8.398438 -0.640625 9.703125 -0.640625 C 11.003906 -0.640625 12.03125 -1.054688 12.78125 -1.890625 C 13.539062 -2.734375 13.925781 -3.867188 13.9375 -5.296875 L 13.9375 -13.765625 C 13.9375 -14.066406 13.828125 -14.3125 13.609375 -14.5 C 13.390625 -14.695312 13.125 -14.796875 12.8125 -14.796875 L 12.46875 -14.796875 L 12.46875 -15.015625 L 16.953125 -15.015625 Z M 16.953125 -14.796875 "/></g></g></g><g fill="#ad0016" fill-opacity="1"><g transform="translate(64.533232, 20.959296)"><g><path d="M 6.828125 -14.078125 L 5.90625 -14.078125 C 5.875 -14.078125 5.847656 -14.078125 5.828125 -14.078125 L 5.828125 -1.5625 C 5.847656 -1.03125 6.078125 -0.640625 6.515625 -0.390625 C 6.734375 -0.273438 6.960938 -0.21875 7.203125 -0.21875 L 7.484375 -0.21875 L 7.484375 0 L 0.96875 0 L 0.96875 -0.21875 L 1.25 -0.21875 C 1.757812 -0.21875 2.148438 -0.4375 2.421875 -0.875 C 2.535156 -1.082031 2.601562 -1.304688 2.625 -1.546875 L 2.625 -13.453125 C 2.601562 -13.828125 2.457031 -14.144531 2.1875 -14.40625 C 1.925781 -14.664062 1.613281 -14.796875 1.25 -14.796875 L 0.96875 -14.796875 L 0.96875 -15.015625 L 8.328125 -15.015625 C 9.710938 -15.015625 10.882812 -14.710938 11.84375 -14.109375 C 12.332031 -13.816406 12.71875 -13.398438 13 -12.859375 C 13.28125 -12.328125 13.421875 -11.71875 13.421875 -11.03125 C 13.421875 -10.351562 13.300781 -9.726562 13.0625 -9.15625 C 12.832031 -8.582031 12.441406 -8.082031 11.890625 -7.65625 C 11.335938 -7.226562 10.675781 -6.972656 9.90625 -6.890625 C 10.738281 -6.617188 11.46875 -5.988281 12.09375 -5 C 13.644531 -2.519531 14.789062 -1.046875 15.53125 -0.578125 C 15.90625 -0.347656 16.367188 -0.226562 16.921875 -0.21875 L 16.921875 0 L 14.828125 0 C 13.609375 0 12.59375 -0.164062 11.78125 -0.5 C 10.96875 -0.84375 10.300781 -1.421875 9.78125 -2.234375 C 9.519531 -2.648438 9.1875 -3.273438 8.78125 -4.109375 C 8.382812 -4.941406 8.125 -5.539062 8 -5.90625 C 7.613281 -6.757812 7.128906 -7.238281 6.546875 -7.34375 L 6.546875 -7.546875 L 7.203125 -7.546875 C 7.847656 -7.546875 8.414062 -7.738281 8.90625 -8.125 C 9.40625 -8.507812 9.738281 -9.140625 9.90625 -10.015625 C 9.96875 -10.316406 10 -10.554688 10 -10.734375 C 10 -11.898438 9.757812 -12.742188 9.28125 -13.265625 C 8.8125 -13.785156 8.207031 -14.054688 7.46875 -14.078125 C 7.320312 -14.078125 7.109375 -14.078125 6.828125 -14.078125 Z M 6.828125 -14.078125 "/></g></g></g><g fill="#ad0016" fill-opacity="1"><g transform="translate(80.541084, 20.959296)"><g><path d="M 15.828125 -0.21875 L 16.015625 -0.21875 L 16.015625 0 L 9.171875 0 L 9.171875 -0.21875 L 9.375 -0.21875 C 9.6875 -0.21875 9.914062 -0.3125 10.0625 -0.5 C 10.21875 -0.695312 10.296875 -0.878906 10.296875 -1.046875 C 10.296875 -1.222656 10.257812 -1.394531 10.1875 -1.5625 L 9.140625 -4.203125 L 4.109375 -4.203125 L 3 -1.5625 C 2.925781 -1.375 2.890625 -1.195312 2.890625 -1.03125 C 2.890625 -0.875 2.960938 -0.695312 3.109375 -0.5 C 3.265625 -0.3125 3.503906 -0.21875 3.828125 -0.21875 L 4 -0.21875 L 4 0 L -0.578125 0 L -0.578125 -0.21875 L -0.390625 -0.21875 C -0.0664062 -0.21875 0.257812 -0.316406 0.59375 -0.515625 C 0.925781 -0.710938 1.195312 -1.015625 1.40625 -1.421875 L 6.359375 -12.640625 C 7.035156 -14.054688 7.394531 -14.992188 7.4375 -15.453125 L 7.625 -15.453125 L 14 -1.453125 C 14.21875 -1.046875 14.488281 -0.738281 14.8125 -0.53125 C 15.144531 -0.320312 15.484375 -0.21875 15.828125 -0.21875 Z M 4.484375 -5.109375 L 8.765625 -5.109375 L 6.6875 -10.390625 Z M 4.484375 -5.109375 "/></g></g></g><g fill="#ad0016" fill-opacity="1"><g transform="translate(95.905188, 20.959296)"><g><path d="M 17.53125 -14.796875 C 17.164062 -14.796875 16.851562 -14.671875 16.59375 -14.421875 C 16.34375 -14.171875 16.210938 -13.867188 16.203125 -13.515625 L 16.203125 -2.453125 C 16.203125 -1.492188 16.265625 -0.679688 16.390625 -0.015625 L 16.453125 0.296875 L 16.265625 0.296875 L 5.421875 -10.015625 L 5.421875 -1.5 C 5.421875 -1.144531 5.550781 -0.84375 5.8125 -0.59375 C 6.070312 -0.34375 6.378906 -0.21875 6.734375 -0.21875 L 7.140625 -0.21875 L 7.140625 0 L 0.640625 0 L 0.640625 -0.21875 L 1.03125 -0.21875 C 1.40625 -0.21875 1.71875 -0.34375 1.96875 -0.59375 C 2.226562 -0.84375 2.359375 -1.148438 2.359375 -1.515625 L 2.359375 -12.65625 C 2.359375 -13.601562 2.296875 -14.390625 2.171875 -15.015625 L 2.125 -15.34375 L 2.3125 -15.34375 L 13.15625 -5.015625 L 13.15625 -13.5 C 13.132812 -13.863281 12.992188 -14.171875 12.734375 -14.421875 C 12.484375 -14.671875 12.179688 -14.796875 11.828125 -14.796875 L 11.4375 -14.796875 L 11.4375 -15.015625 L 17.9375 -15.015625 L 17.9375 -14.796875 Z M 17.53125 -14.796875 "/></g></g></g><g fill="#ad0016" fill-opacity="1"><g transform="translate(114.466572, 20.959296)"><g><path d="M 9.828125 0.28125 C 7.066406 0.28125 4.898438 -0.410156 3.328125 -1.796875 C 1.753906 -3.191406 0.96875 -5.097656 0.96875 -7.515625 C 0.96875 -9.929688 1.742188 -11.832031 3.296875 -13.21875 C 4.859375 -14.613281 7 -15.3125 9.71875 -15.3125 C 11.789062 -15.3125 13.570312 -14.925781 15.0625 -14.15625 L 15.109375 -10.46875 L 14.9375 -10.46875 C 14.207031 -13.101562 12.539062 -14.421875 9.9375 -14.421875 C 8.25 -14.421875 6.914062 -13.804688 5.9375 -12.578125 C 4.957031 -11.359375 4.46875 -9.6875 4.46875 -7.5625 C 4.46875 -5.445312 4.929688 -3.769531 5.859375 -2.53125 C 6.796875 -1.289062 8.066406 -0.644531 9.671875 -0.59375 C 11.328125 -0.59375 12.59375 -1.007812 13.46875 -1.84375 C 14.351562 -2.695312 14.96875 -4.171875 15.3125 -6.265625 L 15.484375 -6.265625 L 15.703125 -2.578125 C 14.546875 -0.660156 12.585938 0.289062 9.828125 0.28125 Z M 9.828125 0.28125 "/></g></g></g><g fill="#ad0016" fill-opacity="1"><g transform="translate(131.204003, 20.959296)"><g><path d="M 1.1875 -0.21875 C 1.550781 -0.21875 1.863281 -0.347656 2.125 -0.609375 C 2.394531 -0.878906 2.535156 -1.195312 2.546875 -1.5625 L 2.546875 -13.515625 C 2.503906 -14.015625 2.269531 -14.382812 1.84375 -14.625 C 1.625 -14.738281 1.40625 -14.796875 1.1875 -14.796875 L 0.90625 -14.796875 L 0.90625 -15.015625 L 9.125 -15.015625 C 9.5625 -15.015625 10.046875 -15.054688 10.578125 -15.140625 C 11.109375 -15.234375 11.476562 -15.320312 11.6875 -15.40625 L 11.6875 -11.65625 L 11.484375 -11.65625 L 11.484375 -11.90625 C 11.484375 -12.550781 11.289062 -13.066406 10.90625 -13.453125 C 10.53125 -13.847656 10.019531 -14.0625 9.375 -14.09375 L 5.765625 -14.09375 L 5.765625 -7.859375 L 8.609375 -7.859375 C 9.128906 -7.867188 9.5625 -8.046875 9.90625 -8.390625 C 10.25 -8.742188 10.421875 -9.179688 10.421875 -9.703125 L 10.421875 -9.890625 L 10.640625 -9.890625 L 10.640625 -4.9375 L 10.421875 -4.9375 L 10.421875 -5.109375 C 10.421875 -5.816406 10.132812 -6.34375 9.5625 -6.6875 C 9.28125 -6.84375 8.96875 -6.929688 8.625 -6.953125 L 5.765625 -6.953125 L 5.765625 -0.921875 L 8.578125 -0.921875 C 9.617188 -0.921875 10.492188 -1.21875 11.203125 -1.8125 C 11.910156 -2.414062 12.4375 -3.269531 12.78125 -4.375 L 13 -4.375 L 12.015625 0 L 0.90625 0 L 0.90625 -0.21875 Z M 1.1875 -0.21875 "/></g></g></g></svg>